<svg width="101" height="23" viewBox="0 0 101 23" fill="none" xmlns="http://www.w3.org/2000/svg">
<path d="M0.71875 11.3359C0.71875 8.05469 1.60417 5.39844 3.375 3.36719C5.14583 1.3099 7.4375 0.28125 10.25 0.28125C13.1146 0.28125 15.3672 1.28385 17.0078 3.28906C18.6484 5.26823 19.4688 7.80729 19.4688 10.9062C19.4688 11.2708 19.4427 11.7917 19.3906 12.4688H3.76562C3.76562 14.5781 4.35156 16.388 5.52344 17.8984C6.69531 19.4089 8.32292 20.1641 10.4062 20.1641C11.7604 20.1641 12.9583 19.8516 14 19.2266C15.0417 18.5755 15.849 17.7161 16.4219 16.6484L19 17.4297C18.349 18.9661 17.2943 20.2292 15.8359 21.2188C14.3776 22.2083 12.5677 22.7031 10.4062 22.7031C7.48958 22.7031 5.14583 21.6615 3.375 19.5781C1.60417 17.4948 0.71875 14.7474 0.71875 11.3359ZM3.84375 10.1641H16.4219C16.4219 8.10677 15.862 6.375 14.7422 4.96875C13.6224 3.53646 12.125 2.82031 10.25 2.82031C8.34896 2.82031 6.8125 3.54948 5.64062 5.00781C4.49479 6.46615 3.89583 8.1849 3.84375 10.1641ZM24.2344 22V0.984375H27.2031V4.57812H27.2422C27.5547 3.53646 28.3229 2.5599 29.5469 1.64844C30.7708 0.736979 32.2292 0.28125 33.9219 0.28125C35.875 0.28125 37.4766 0.893229 38.7266 2.11719C40.0026 3.34115 40.6406 5.4375 40.6406 8.40625V22H37.5938V8.91406C37.5938 4.85156 36.1354 2.82031 33.2188 2.82031C31.6042 2.82031 30.2109 3.47135 29.0391 4.77344C27.8672 6.07552 27.2812 7.63802 27.2812 9.46094V22H24.2344ZM45.25 11.4922C45.25 8.15885 46.0964 5.46354 47.7891 3.40625C49.4818 1.32292 51.7604 0.28125 54.625 0.28125C56.5 0.28125 58.1016 0.828125 59.4297 1.92188C60.7839 2.98958 61.6823 4.26562 62.125 5.75L59.5469 6.49219C59.1562 5.45052 58.5182 4.57812 57.6328 3.875C56.7734 3.17188 55.7708 2.82031 54.625 2.82031C52.6979 2.82031 51.1615 3.64062 50.0156 5.28125C48.8698 6.92188 48.2969 8.99219 48.2969 11.4922C48.2969 14.1484 48.8958 16.2578 50.0938 17.8203C51.2917 19.3828 52.8021 20.1641 54.625 20.1641C55.849 20.1641 56.9557 19.7734 57.9453 18.9922C58.9609 18.1849 59.6771 17.2604 60.0938 16.2188L62.6719 17.0391C62.125 18.6016 61.1224 19.9427 59.6641 21.0625C58.2318 22.1562 56.5521 22.7031 54.625 22.7031C51.8385 22.7031 49.5729 21.6875 47.8281 19.6562C46.1094 17.625 45.25 14.9036 45.25 11.4922ZM68.375 11.4922C68.375 14.1484 68.987 16.2578 70.2109 17.8203C71.4349 19.3828 72.9583 20.1641 74.7812 20.1641C76.5781 20.1641 78.0885 19.3828 79.3125 17.8203C80.5625 16.2578 81.1875 14.1484 81.1875 11.4922C81.1875 8.78385 80.5625 6.66146 79.3125 5.125C78.0625 3.58854 76.5521 2.82031 74.7812 2.82031C72.9844 2.82031 71.4609 3.58854 70.2109 5.125C68.987 6.66146 68.375 8.78385 68.375 11.4922ZM65.3281 11.4922C65.3281 8.28906 66.1484 5.61979 67.7891 3.48438C69.4557 1.34896 71.7865 0.28125 74.7812 0.28125C77.75 0.28125 80.0677 1.34896 81.7344 3.48438C83.401 5.61979 84.2344 8.28906 84.2344 11.4922C84.2344 12.8464 84.0521 14.1615 83.6875 15.4375C83.349 16.7135 82.8151 17.9115 82.0859 19.0312C81.3828 20.125 80.3932 21.0104 79.1172 21.6875C77.8672 22.3646 76.4219 22.7031 74.7812 22.7031C73.1667 22.7031 71.7214 22.3776 70.4453 21.7266C69.1953 21.0495 68.2057 20.1641 67.4766 19.0703C66.7734 17.9505 66.2396 16.7526 65.875 15.4766C65.5104 14.2005 65.3281 12.8724 65.3281 11.4922ZM89.0781 22V0.984375H91.9688V4.03125C92.3854 3.09375 93.0755 2.23438 94.0391 1.45312C95.0026 0.671875 96.2396 0.28125 97.75 0.28125C98.8698 0.28125 99.8594 0.463542 100.719 0.828125V3.5625C99.7812 3.19792 98.7917 3.01562 97.75 3.01562C95.9792 3.01562 94.599 3.67969 93.6094 5.00781C92.6198 6.33594 92.125 8.09375 92.125 10.2812V22H89.0781Z" fill="url(#paint0_linear)"/>
<defs>
<linearGradient id="paint0_linear" x1="6.28572" y1="-15" x2="47.3286" y2="69.3266" gradientUnits="userSpaceOnUse">
<stop stop-color="#4E64F8"/>
<stop offset="0.272916" stop-color="#9B8CFB"/>
<stop offset="0.533192" stop-color="#CA8CFB"/>
<stop offset="0.805313" stop-color="#FB8C8C"/>
</linearGradient>
</defs>
</svg>
